<mxfile host="drawio-plugin" modified="2022-01-10T13:33:32.766Z" agent="5.0 (Windows NT 6.2; Win64; x64) AppleWebKit/537.36 (KHTML, like Gecko) Chrome/89.0.4389.114 Safari/537.36" etag="6g5UNYTG4Uhr33KveKuK" version="15.5.4" type="embed"><diagram id="kgpKYQtTHZ0yAKxKKP6v" name="Page-1"><mxGraphModel dx="882" dy="727" grid="1" gridSize="10" guides="1" tooltips="1" connect="1" arrows="1" fold="1" page="1" pageScale="1" pageWidth="850" pageHeight="1400" math="0" shadow="0"><root><mxCell id="0"/><mxCell id="1" parent="0"/><mxCell id="Xf4pGCJA_2V8HKtEPTvi-1" value="usager" style="shape=umlActor;verticalLabelPosition=bottom;verticalAlign=top;html=1;outlineConnect=0;" parent="1" vertex="1"><mxGeometry x="180" y="50" width="30" height="60" as="geometry"/></mxCell><mxCell id="Xf4pGCJA_2V8HKtEPTvi-4" value="système" style="html=1;" parent="1" vertex="1"><mxGeometry x="500" y="50" width="110" height="50" as="geometry"/></mxCell><mxCell id="Xf4pGCJA_2V8HKtEPTvi-5" value="" style="endArrow=none;dashed=1;html=1;rounded=0;" parent="1" edge="1"><mxGeometry width="50" height="50" relative="1" as="geometry"><mxPoint x="190" y="670" as="sourcePoint"/><mxPoint x="190" y="140" as="targetPoint"/></mxGeometry></mxCell><mxCell id="Xf4pGCJA_2V8HKtEPTvi-6" value="" style="endArrow=none;dashed=1;html=1;rounded=0;entryX=0.5;entryY=1;entryDx=0;entryDy=0;" parent="1" target="Xf4pGCJA_2V8HKtEPTvi-4" edge="1"><mxGeometry width="50" height="50" relative="1" as="geometry"><mxPoint x="555" y="670" as="sourcePoint"/><mxPoint x="450" y="350" as="targetPoint"/></mxGeometry></mxCell><mxCell id="Xf4pGCJA_2V8HKtEPTvi-7" value="" style="endArrow=classic;html=1;rounded=0;" parent="1" edge="1"><mxGeometry width="50" height="50" relative="1" as="geometry"><mxPoint x="550" y="160" as="sourcePoint"/><mxPoint x="200" y="160" as="targetPoint"/></mxGeometry></mxCell><mxCell id="Xf4pGCJA_2V8HKtEPTvi-8" value="entrez votre numéro client" style="text;html=1;align=center;verticalAlign=middle;resizable=0;points=[];autosize=1;strokeColor=none;fillColor=none;" parent="1" vertex="1"><mxGeometry x="299" y="137" width="150" height="20" as="geometry"/></mxCell><mxCell id="Xf4pGCJA_2V8HKtEPTvi-9" value="" style="endArrow=classic;html=1;rounded=0;" parent="1" edge="1"><mxGeometry width="50" height="50" relative="1" as="geometry"><mxPoint x="200" y="240" as="sourcePoint"/><mxPoint x="550" y="240" as="targetPoint"/></mxGeometry></mxCell><mxCell id="Xf4pGCJA_2V8HKtEPTvi-10" value="entre son code et valide" style="text;html=1;align=center;verticalAlign=middle;resizable=0;points=[];autosize=1;strokeColor=none;fillColor=none;" parent="1" vertex="1"><mxGeometry x="309" y="210" width="140" height="20" as="geometry"/></mxCell><mxCell id="Xf4pGCJA_2V8HKtEPTvi-11" value="" style="endArrow=classic;html=1;rounded=0;" parent="1" edge="1"><mxGeometry width="50" height="50" relative="1" as="geometry"><mxPoint x="550" y="300" as="sourcePoint"/><mxPoint x="200" y="300" as="targetPoint"/></mxGeometry></mxCell><mxCell id="Xf4pGCJA_2V8HKtEPTvi-12" value="&amp;nbsp;demande de scanner l'article" style="text;html=1;align=center;verticalAlign=middle;resizable=0;points=[];autosize=1;strokeColor=none;fillColor=none;" parent="1" vertex="1"><mxGeometry x="302" y="280" width="170" height="20" as="geometry"/></mxCell><mxCell id="Xf4pGCJA_2V8HKtEPTvi-13" value="" style="endArrow=classic;html=1;rounded=0;" parent="1" edge="1"><mxGeometry width="50" height="50" relative="1" as="geometry"><mxPoint x="200" y="360" as="sourcePoint"/><mxPoint x="550" y="360" as="targetPoint"/></mxGeometry></mxCell><mxCell id="Xf4pGCJA_2V8HKtEPTvi-14" value="scan son article" style="text;html=1;align=center;verticalAlign=middle;resizable=0;points=[];autosize=1;strokeColor=none;fillColor=none;" parent="1" vertex="1"><mxGeometry x="280" y="340" width="100" height="20" as="geometry"/></mxCell><mxCell id="Xf4pGCJA_2V8HKtEPTvi-15" value="" style="endArrow=classic;html=1;rounded=0;" parent="1" edge="1"><mxGeometry width="50" height="50" relative="1" as="geometry"><mxPoint x="560" y="360" as="sourcePoint"/><mxPoint x="560" y="440" as="targetPoint"/><Array as="points"><mxPoint x="680" y="360"/><mxPoint x="680" y="440"/></Array></mxGeometry></mxCell><mxCell id="Xf4pGCJA_2V8HKtEPTvi-16" value="vérifier le nombre d'emprunt&amp;nbsp;" style="edgeLabel;html=1;align=center;verticalAlign=middle;resizable=0;points=[];" parent="Xf4pGCJA_2V8HKtEPTvi-15" vertex="1" connectable="0"><mxGeometry x="0.1371" y="-4" relative="1" as="geometry"><mxPoint x="-19" y="-77" as="offset"/></mxGeometry></mxCell><mxCell id="Xf4pGCJA_2V8HKtEPTvi-17" value="" style="endArrow=classic;html=1;rounded=0;" parent="1" edge="1"><mxGeometry width="50" height="50" relative="1" as="geometry"><mxPoint x="560" y="240" as="sourcePoint"/><mxPoint x="560" y="300" as="targetPoint"/><Array as="points"><mxPoint x="660" y="240"/><mxPoint x="660" y="300"/></Array></mxGeometry></mxCell><mxCell id="Xf4pGCJA_2V8HKtEPTvi-18" value="vérifie si client valide et&amp;nbsp; si la cotisation à était payé" style="text;html=1;align=center;verticalAlign=middle;resizable=0;points=[];autosize=1;strokeColor=none;fillColor=none;" parent="1" vertex="1"><mxGeometry x="566" y="220" width="290" height="20" as="geometry"/></mxCell><mxCell id="Xf4pGCJA_2V8HKtEPTvi-19" value="" style="endArrow=classic;html=1;rounded=0;" parent="1" edge="1"><mxGeometry width="50" height="50" relative="1" as="geometry"><mxPoint x="550" y="440" as="sourcePoint"/><mxPoint x="200" y="440" as="targetPoint"/></mxGeometry></mxCell><mxCell id="Xf4pGCJA_2V8HKtEPTvi-20" value="Création d'une fiche" style="text;html=1;align=center;verticalAlign=middle;resizable=0;points=[];autosize=1;strokeColor=none;fillColor=none;" parent="1" vertex="1"><mxGeometry x="300" y="420" width="120" height="20" as="geometry"/></mxCell><mxCell id="2" value="autant de fois max 5 emprunt" style="shape=umlFrame;whiteSpace=wrap;html=1;width=140;height=30;" parent="1" vertex="1"><mxGeometry x="140" y="320" width="590" height="180" as="geometry"/></mxCell><mxCell id="4" value="1" style="endArrow=open;html=1;endSize=12;startArrow=diamondThin;startSize=14;startFill=1;edgeStyle=orthogonalEdgeStyle;align=left;verticalAlign=bottom;" parent="1" edge="1"><mxGeometry x="-1" y="3" relative="1" as="geometry"><mxPoint x="550" y="540" as="sourcePoint"/><mxPoint x="190" y="540" as="targetPoint"/><Array as="points"><mxPoint x="210" y="540"/><mxPoint x="210" y="540"/></Array></mxGeometry></mxCell><mxCell id="5" value="validation final" style="text;html=1;align=center;verticalAlign=middle;resizable=0;points=[];autosize=1;strokeColor=none;" parent="1" vertex="1"><mxGeometry x="315" y="520" width="90" height="20" as="geometry"/></mxCell></root></mxGraphModel></diagram></mxfile>